<?xml version="1.0" encoding="UTF-8"?>
<svg width="361px" height="336px" viewBox="0 0 361 336" version="1.1" xmlns="http://www.w3.org/2000/svg" xmlns:xlink="http://www.w3.org/1999/xlink">
    <!-- Generator: Sketch 55.2 (78181) - https://sketchapp.com -->
    <title>Group</title>
    <desc>Created with Sketch.</desc>
    <defs>
        <path d="M56,16.303876 C34.0477519,16.303876 16.1857984,34.1631008 16.1857984,56.1126202 C16.1857984,78.0675969 34.0477519,95.9268217 56,95.9268217 C77.9522481,95.9268217 95.8142016,78.0675969 95.8142016,56.1126202 C95.8142016,34.1631008 77.9522481,16.303876 56,16.303876 Z M56,111.971473 C25.1986357,111.971473 0.141147287,86.9139845 0.141147287,56.1126202 C0.141147287,25.3139845 25.1986357,0.259224806 56,0.259224806 C86.7986357,0.259224806 111.858853,25.3139845 111.858853,56.1126202 C111.858853,86.9139845 86.7986357,111.971473 56,111.971473 L56,111.971473 Z" id="path-1"></path>
    </defs>
    <g id="Page-1" stroke="none" stroke-width="1" fill="none" fill-rule="evenodd">
        <g id="logo512-copy-2" transform="translate(-76.000000, -88.000000)">
            <g id="Group" transform="translate(76.000000, 88.000000)">
                <path d="M106.513546,195.814789 L106.513546,312.716184 C106.513546,316.767075 109.832804,320.067399 113.910283,320.067399 C117.990488,320.067399 121.309746,316.767075 121.309746,312.716184 L121.309746,232.131906 C121.309746,218.041851 115.669462,205.230739 106.513546,195.814789 Z M254.483726,195.817499 C245.330538,205.233449 239.690254,218.041851 239.690254,232.131906 L239.690254,312.716184 C239.690254,316.767075 243.009512,320.067399 247.089717,320.067399 C251.167196,320.067399 254.483726,316.767075 254.483726,312.716184 L254.483726,195.817499 Z M247.089717,336 C234.167248,336 223.653083,325.554392 223.653083,312.716184 L223.653083,232.131906 C223.653083,208.788478 235.511862,188.143838 253.564589,175.836717 C247.954306,140.798543 217.325491,113.932601 180.5,113.932601 C143.674509,113.932601 113.048421,140.801252 107.432684,175.836717 C125.485411,188.143838 137.346917,208.788478 137.346917,232.131906 L137.346917,312.716184 C137.346917,325.554392 126.832752,336 113.910283,336 C100.990541,336 90.476375,325.554392 90.476375,312.716184 L90.476375,187.433916 C90.476375,186.469289 90.4927395,185.515501 90.522741,184.559003 C83.8624056,181.526931 76.462942,179.838834 68.6734587,179.838834 C39.6483605,179.838834 16.0371714,203.296066 16.0371714,232.131906 L16.0371714,293.46971 C16.0371714,297.867433 12.4478997,301.436011 8.01858568,301.436011 C3.58927168,301.436011 0,297.867433 0,293.46971 L0,232.131906 C0,194.511459 30.806097,163.906233 68.6734587,163.906233 C77.0766092,163.906233 85.1306513,165.412785 92.5792082,168.168475 C101.473293,128.082268 137.516017,98 180.5,98 C223.481256,98 259.526707,128.082268 268.420792,168.168475 C275.866621,165.412785 283.923391,163.906233 292.326541,163.906233 C330.193903,163.906233 361,194.511459 361,232.131906 L361,293.46971 C361,297.867433 357.410728,301.436011 352.981414,301.436011 C348.5521,301.436011 344.962829,297.867433 344.962829,293.46971 L344.962829,232.131906 C344.962829,203.296066 321.351639,179.838834 292.326541,179.838834 C284.537058,179.838834 277.134867,181.526931 270.474532,184.559003 C270.504533,185.512791 270.520898,186.471999 270.520898,187.433916 L270.520898,312.716184 C270.520898,325.554392 260.009459,336 247.089717,336 L247.089717,336 Z" id="Fill-29" fill="#FFFFFF"></path>
                <path d="M291.5,107.044394 C275.808081,107.044394 263.043902,119.806236 263.043902,135.498636 C263.043902,151.188307 275.808081,163.955606 291.5,163.955606 C307.18919,163.955606 319.956098,151.188307 319.956098,135.498636 C319.956098,119.806236 307.18919,107.044394 291.5,107.044394 Z M291.5,180 C266.962107,180 247,160.037281 247,135.498636 C247,110.962719 266.962107,91 291.5,91 C316.037893,91 336,110.962719 336,135.498636 C336,160.037281 316.037893,180 291.5,180 L291.5,180 Z" id="Fill-32" fill="#FFFFFF"></path>
                <g id="Group-37" transform="translate(124.000000, 0.000000)">
                    <mask id="mask-2" fill="white">
                        <use xlink:href="#path-1"></use>
                    </mask>
                    <g id="Clip-36"></g>
                    <path d="M56,16.303876 C34.0477519,16.303876 16.1857984,34.1631008 16.1857984,56.1126202 C16.1857984,78.0675969 34.0477519,95.9268217 56,95.9268217 C77.9522481,95.9268217 95.8142016,78.0675969 95.8142016,56.1126202 C95.8142016,34.1631008 77.9522481,16.303876 56,16.303876 Z M56,111.971473 C25.1986357,111.971473 0.141147287,86.9139845 0.141147287,56.1126202 C0.141147287,25.3139845 25.1986357,0.259224806 56,0.259224806 C86.7986357,0.259224806 111.858853,25.3139845 111.858853,56.1126202 C111.858853,86.9139845 86.7986357,111.971473 56,111.971473 L56,111.971473 Z" id="Fill-35" fill="#FFFFFF" mask="url(#mask-2)"></path>
                </g>
                <path d="M67.5,107.044394 C51.8080814,107.044394 39.0439021,119.806236 39.0439021,135.498636 C39.0439021,151.188307 51.8080814,163.955606 67.5,163.955606 C83.18919,163.955606 95.9533693,151.188307 95.9533693,135.498636 C95.9533693,119.806236 83.18919,107.044394 67.5,107.044394 Z M67.5,180 C42.9621068,180 23,160.037281 23,135.498636 C23,110.962719 42.9621068,91 67.5,91 C92.0378932,91 112,110.962719 112,135.498636 C112,160.037281 92.0378932,180 67.5,180 L67.5,180 Z" id="Fill-38" fill="#FFFFFF"></path>
            </g>
        </g>
    </g>
</svg>