<?xml version="1.0" encoding="UTF-8"?>
<svg width="1313px" height="1073px" viewBox="0 0 1313 1073" version="1.1" xmlns="http://www.w3.org/2000/svg" xmlns:xlink="http://www.w3.org/1999/xlink">
    <!-- Generator: Sketch 55.2 (78181) - https://sketchapp.com -->
    <title>community</title>
    <desc>Created with Sketch.</desc>
    <g id="Page-1" stroke="none" stroke-width="1" fill="none" fill-rule="evenodd">
        <g id="Artboard-Copy-2" transform="translate(-1351.000000, -250.000000)">
            <g id="community" transform="translate(1351.000000, 250.000000)">
                <path d="M281,610.632523 L281,689 L336,689 L336,502 C302.65625,526.639849 281,566.160357 281,610.632523" id="Fill-48" fill="#A5FFD5"></path>
                <path d="M294,464 L0,464 L0,689 L224.641473,689 L224.641473,610.912108 C224.641473,551.87625 251.654644,499.018548 294,464" id="Fill-49" fill="#A5FFD5"></path>
                <path d="M1066.36693,394.422712 C990.998121,394.422712 929.674605,333.006271 929.674605,257.514607 C929.674605,182.022942 990.998121,120.605076 1066.36693,120.605076 C1141.74999,120.605076 1203.05926,182.022942 1203.05926,257.514607 C1203.05926,333.006271 1141.74999,394.422712 1066.36693,394.422712 M740.661425,394.422712 C665.292616,394.422712 603.969099,333.006271 603.969099,257.514607 C603.969099,182.022942 665.292616,120.605076 740.661425,120.605076 C816.04448,120.605076 877.367996,182.022942 877.367996,257.514607 C877.367996,333.006271 816.04448,394.422712 740.661425,394.422712 M1058.44687,0 L350,0 L350,137.077721 C369.330084,126.575822 391.466378,120.605076 414.95592,120.605076 C490.338974,120.605076 551.66249,182.022942 551.66249,257.514607 C551.66249,333.006271 490.338974,394.422712 414.95592,394.422712 C391.466378,394.422712 369.330084,388.453391 350,377.951492 L350,430.539382 C370.28448,423.164677 392.164369,419.135243 414.95592,419.135243 C483.786403,419.135243 544.212502,455.797818 577.815795,510.640594 C611.419088,455.797818 671.845187,419.135243 740.661425,419.135243 C809.491909,419.135243 869.918008,455.797818 903.521301,510.640594 C937.124593,455.797818 997.550692,419.135243 1066.36693,419.135243 C1152.43352,419.135243 1225.36649,476.469512 1249.12668,555 L1313,555 L1313,0 L1058.44687,0" id="Fill-50" fill="#8AFFC8"></path>
                <path d="M673.537811,555 L864,555 C842.845454,507.87732 795.661123,475 740.992872,475 C686.324622,475 639.154546,507.87732 618,555 L673.537811,555" id="Fill-51" fill="#8AFFC8"></path>
                <path d="M1066.99287,475 C1012.32462,475 965.154546,507.87732 944,555 L1190,555 C1168.8312,507.87732 1121.66112,475 1066.99287,475" id="Fill-52" fill="#8AFFC8"></path>
                <path d="M351,314.532725 C366.819994,332.579083 389.981943,344 415.756889,344 C463.31628,344 502,305.196488 502,257.500711 C502,209.803512 463.31628,171 415.756889,171 C389.981943,171 366.819994,182.42234 351,200.468698 L351,314.532725" id="Fill-53" fill="#8AFFC8"></path>
                <path d="M1066.5,171 C1018.79895,171 980,209.803512 980,257.500711 C980,305.196488 1018.79895,344 1066.5,344 C1114.20105,344 1153,305.196488 1153,257.500711 C1153,209.803512 1114.20105,171 1066.5,171" id="Fill-54" fill="#8AFFC8"></path>
                <path d="M741.5,171 C693.81319,171 655,209.803512 655,257.500711 C655,305.196488 693.81319,344 741.5,344 C789.201054,344 828,305.196488 828,257.500711 C828,209.803512 789.201054,171 741.5,171" id="Fill-55" fill="#8AFFC8"></path>
                <path d="M414.999621,475 C391.451513,475 369.286072,481.110882 350,491.827483 L350,555 L538,555 C516.846615,507.87732 469.664872,475 414.999621,475" id="Fill-56" fill="#8AFFC8"></path>
                <path d="M823.109007,574 L611.569115,574 C608.325161,585.572318 606.589362,597.767936 606.589362,610.363433 L606.589362,803.323154 L550.503119,803.323154 L550.503119,610.363433 C550.503119,597.767936 548.753092,585.572318 545.509139,574 L351,574 L351,1073 L871,1073 L871,574.6233 C870.943089,574.416956 870.886177,574.207767 870.829266,574 L823.109007,574" id="Fill-57" fill="#84FFC5"></path>
                <path d="M335,464 L293.364302,464 C251.01542,499.018548 224,551.87625 224,610.912108 L224,689 L280.227448,689 L280.227448,610.912108 C280.227448,566.598601 301.79414,527.219086 335,502.667143 L335,464" id="Fill-58" fill="#80D9A5"></path>
                <path d="M335,464 L293.364302,464 C251.01542,499.018548 224,551.87625 224,610.912108 L224,689 L280.227448,689 L280.227448,610.912108 C280.227448,566.598601 301.79414,527.219086 335,502.667143 L335,464" id="Fill-59" fill="#6B9494"></path>
                <path d="M578,510.596437 C544.369537,455.699069 483.894579,419 415.008441,419 C392.198462,419 370.300882,423.033445 350,430.415491 L350,492.064278 C369.288689,481.386421 391.457137,475.299871 415.008441,475.299871 C469.68111,475.299871 516.869255,508.053955 538.025511,555 L558.069781,555 C562.831364,539.251445 569.574564,524.351811 578,510.596437" id="Fill-60" fill="#80D9A5"></path>
                <path d="M578,510.596437 C544.369537,455.699069 483.894579,419 415.008441,419 C392.198462,419 370.300882,423.033445 350,430.415491 L350,492.064278 C369.288689,481.386421 391.457137,475.299871 415.008441,475.299871 C469.68111,475.299871 516.869255,508.053955 538.025511,555 L558.069781,555 C562.831364,539.251445 569.574564,524.351811 578,510.596437" id="Fill-61" fill="#4E6D6D"></path>
                <path d="M553,574 L545,574 C548.060403,585.456659 549.711409,597.530388 549.711409,610 C549.711409,597.690995 550.852349,585.658122 553,574" id="Fill-62" fill="#80D9A5"></path>
                <path d="M549.711409,610 L549.711409,610 C549.711409,597.530388 548.060403,585.456659 545,574 L553,574 C550.852349,585.658122 549.711409,597.690995 549.711409,610" id="Fill-63" fill="#4E6D6D"></path>
                <path d="M617.978307,555 C639.136584,508.053955 686.314979,475.299871 740.992871,475.299871 C795.670763,475.299871 842.863416,508.053955 864.021693,555 L884.067877,555 C888.829915,539.251445 895.573759,524.351811 904,510.596437 C870.366324,455.699069 809.885589,419 740.992871,419 C672.114411,419 611.633676,455.699069 578,510.596437 C586.426241,524.351811 593.155828,539.251445 597.917866,555 L617.978307,555" id="Fill-64" fill="#80D9A5"></path>
                <path d="M606.294118,610 C606.294118,597.530388 607.934454,585.456659 611,574 L603,574 C605.151261,585.658122 606.294118,597.690995 606.294118,610" id="Fill-65" fill="#80D9A5"></path>
                <path d="M870.44,574.281 C870.48,574.427 870.52,574.574 870.56,574.719 L870.56,574.281 L870.44,574.281" id="Fill-66" fill="#80D9A5"></path>
                <path d="M870.56,574.719 L870.56,574.719 C870.52,574.574 870.48,574.427 870.44,574.281 L870.56,574.281 L870.56,574.719" id="Fill-67" fill="#BF8952"></path>
                <path d="M598,555 C593.220036,539.394576 586.465116,524.630358 578.007156,511 C569.549195,524.630358 562.779964,539.394576 558,555 L598,555" id="Fill-68" fill="#80D9A5"></path>
                <path d="M740.960887,419 C672.068912,419 611.57631,455.699069 577.936034,510.596437 C569.50814,524.351811 562.762972,539.251445 558,555 L617.922186,555 C639.084614,508.053955 686.272266,475.299871 740.960887,475.299871 C795.649507,475.299871 842.85142,508.053955 864.013848,555 L884.063966,555 C888.826938,539.251445 895.572106,524.351811 904,510.596437 C870.359725,455.699069 809.867123,419 740.960887,419" id="Fill-69" fill="#FFFFFF"></path>
                <path d="M553.480467,574 C551.207509,585.810572 550,598.000794 550,610.47076 L550,804 L606,804 L606,610.47076 C606,598.000794 604.792491,585.810572 602.519533,574 L553.480467,574" id="Fill-70" fill="#80D9A5"></path>
                <path d="M606,804 L550,804 L550,610.47076 C550,598.000794 551.207509,585.810572 553.480467,574 L602.519533,574 C604.792491,585.810572 606,598.000794 606,610.47076 L606,804" id="Fill-71" fill="#6AB1D2"></path>
                <path d="M602.543569,574 L553.48206,574 C551.208062,585.810572 550,598.002222 550,610.47076 L550,804 L606.025629,804 L606.025629,610.47076 C606.025629,597.838087 607.759553,585.606474 611,574 L602.543569,574" id="Fill-72" fill="#FFFFFF"></path>
                <path d="M1067.03157,419 C998.136757,419 937.641662,455.699069 904,510.596437 C912.428242,524.351811 919.159426,539.251445 923.922595,555 L943.9878,555 C965.1511,508.053955 1012.3407,475.299871 1067.03157,475.299871 C1121.72245,475.299871 1168.91204,508.053955 1190.08961,555 L1250,555 C1226.21268,476.391341 1153.19644,419 1067.03157,419" id="Fill-73" fill="#80D9A5"></path>
                <path d="M924,555 C919.220036,539.394576 912.465116,524.630358 904.007156,511 C895.549195,524.630358 888.779964,539.394576 884,555 L924,555" id="Fill-74" fill="#80D9A5"></path>
                <path d="M924,555 L884,555 C888.779964,539.394576 895.549195,524.630358 904.007156,511 C912.465116,524.630358 919.220036,539.394576 924,555" id="Fill-75" fill="#BF8952"></path>
                <path d="M1066.5,419 C997.781567,419 937.441348,455.699069 903.885814,510.597864 C895.47915,524.351811 888.750974,539.251445 884,555 L943.771239,555 C964.880359,508.053955 1011.94914,475.299871 1066.5,475.299871 C1121.05086,475.299871 1168.11964,508.053955 1189.24299,555 L1249,555 C1225.27358,476.391341 1152.44427,419 1066.5,419" id="Fill-76" fill="#65A7DD"></path>
                <path d="M552,258.000713 C552,182.45877 490.57385,121 415.064632,121 C391.535777,121 369.362436,126.974722 350,137.483616 L350,200.836497 C365.895176,182.748307 389.167196,171.299489 415.064632,171.299489 C462.850039,171.299489 501.717596,210.19295 501.717596,258.000713 C501.717596,305.80705 462.850039,344.700511 415.064632,344.700511 C389.167196,344.700511 365.895176,333.253119 350,315.164929 L350,378.516384 C369.362436,389.026704 391.535777,395 415.064632,395 C490.57385,395 552,333.542656 552,258.000713" id="Fill-77" fill="#80D9A5"></path>
                <path d="M552,258.000713 C552,182.45877 490.57385,121 415.064632,121 C391.535777,121 369.362436,126.974722 350,137.483616 L350,200.836497 C365.895176,182.748307 389.167196,171.299489 415.064632,171.299489 C462.850039,171.299489 501.717596,210.19295 501.717596,258.000713 C501.717596,305.80705 462.850039,344.700511 415.064632,344.700511 C389.167196,344.700511 365.895176,333.253119 350,315.164929 L350,378.516384 C369.362436,389.026704 391.535777,395 415.064632,395 C490.57385,395 552,333.542656 552,258.000713" id="Fill-78" fill="#4E6D6D"></path>
                <path d="M741.492888,344.700511 C693.871151,344.700511 655.110926,305.80705 655.110926,258.000713 C655.110926,210.19295 693.871151,171.299489 741.492888,171.299489 C789.128849,171.299489 827.87485,210.19295 827.87485,258.000713 C827.87485,305.80705 789.128849,344.700511 741.492888,344.700511 Z M741.492888,121 C666.234044,121 605,182.45877 605,258.000713 C605,333.542656 666.234044,395 741.492888,395 C816.765956,395 878,333.542656 878,258.000713 C878,182.45877 816.765956,121 741.492888,121 L741.492888,121 Z" id="Fill-79" fill="#80D9A5"></path>
                <path d="M741.492888,344.700511 C693.871151,344.700511 655.110926,305.80705 655.110926,258.000713 C655.110926,210.19295 693.871151,171.299489 741.492888,171.299489 C789.128849,171.299489 827.87485,210.19295 827.87485,258.000713 C827.87485,305.80705 789.128849,344.700511 741.492888,344.700511 Z M741.492888,121 C666.234044,121 605,182.45877 605,258.000713 C605,333.542656 666.234044,395 741.492888,395 C816.765956,395 878,333.542656 878,258.000713 C878,182.45877 816.765956,121 741.492888,121 L741.492888,121 Z" id="Fill-80" fill="#FFFFFF"></path>
                <path d="M1066.5,344.700511 C1018.86156,344.700511 980.113537,305.80705 980.113537,258.000713 C980.113537,210.19295 1018.86156,171.299489 1066.5,171.299489 C1114.13844,171.299489 1152.88646,210.19295 1152.88646,258.000713 C1152.88646,305.80705 1114.13844,344.700511 1066.5,344.700511 Z M1066.5,121 C991.237234,121 930,182.45877 930,258.000713 C930,333.542656 991.237234,395 1066.5,395 C1141.77699,395 1203,333.542656 1203,258.000713 C1203,182.45877 1141.77699,121 1066.5,121 L1066.5,121 Z" id="Fill-81" fill="#80D9A5"></path>
                <path d="M1066.5,344.700511 C1018.86156,344.700511 980.113537,305.80705 980.113537,258.000713 C980.113537,210.19295 1018.86156,171.299489 1066.5,171.299489 C1114.13844,171.299489 1152.88646,210.19295 1152.88646,258.000713 C1152.88646,305.80705 1114.13844,344.700511 1066.5,344.700511 Z M1066.5,121 C991.237234,121 930,182.45877 930,258.000713 C930,333.542656 991.237234,395 1066.5,395 C1141.77699,395 1203,333.542656 1203,258.000713 C1203,182.45877 1141.77699,121 1066.5,121 L1066.5,121 Z" id="Fill-82" fill="#65A7DD"></path>
            </g>
        </g>
    </g>
</svg>