<?xml version="1.0" encoding="UTF-8"?>
<svg width="309px" height="126px" viewBox="0 0 309 126" version="1.1" xmlns="http://www.w3.org/2000/svg" xmlns:xlink="http://www.w3.org/1999/xlink">
    <!-- Generator: Sketch 55.2 (78181) - https://sketchapp.com -->
    <title>Group</title>
    <desc>Created with Sketch.</desc>
    <g id="Page-1" stroke="none" stroke-width="1" fill="none" fill-rule="evenodd">
        <g id="Artboard" transform="translate(-35.000000, -61.000000)">
            <g id="Group" transform="translate(34.000000, 54.000000)">
                <path d="M5.28,14.32 C5.28,12.48 5.9399934,10.8800068 7.26,9.52 C8.5800066,8.1599932 10.1799906,7.48 12.06,7.48 C13.9400094,7.48 15.5399934,8.1399934 16.86,9.46 C18.1800066,10.7800066 18.84,12.3799906 18.84,14.26 C18.84,16.1400094 18.1800066,17.7399934 16.86,19.06 C15.5399934,20.3800066 13.9400094,21.04 12.06,21.04 C10.1799906,21.04 8.5800066,20.3600068 7.26,19 C5.9399934,17.6399932 5.28,16.0800088 5.28,14.32 Z M7.92,32.08 L16.2,32.08 L16.2,95.8 L7.92,95.8 L7.92,32.08 Z M30.5916219,32.08 L38.9916219,32.08 L38.9916219,41.32 C41.2316331,37.5599812 43.4116113,34.8000088 45.5316219,33.04 C47.6516325,31.2799912 50.0116089,30.4 52.6116219,30.4 C55.2116349,30.4 57.8316087,31.1199928 60.4716219,32.56 L56.1516219,39.52 C54.9516159,38.7999964 53.7116283,38.44 52.4316219,38.44 C49.9516095,38.44 47.6116329,39.7199872 45.4116219,42.28 C43.2116109,44.8400128 41.5916219,48.1399798 40.5516219,52.18 C39.5116167,56.2200202 38.9916219,63.5599468 38.9916219,74.2 L38.9916219,95.8 L30.5916219,95.8 L30.5916219,32.08 Z M124.063244,75.16 L131.023244,78.76 C124.143209,91.560064 113.983311,97.96 100.543244,97.96 C90.9431959,97.96 83.0232751,94.660033 76.7832439,88.06 C70.5432127,81.459967 67.4232439,73.5200464 67.4232439,64.24 C67.4232439,54.9599536 70.5632125,47.0000332 76.8432439,40.36 C83.1232753,33.7199668 90.8831977,30.4 100.123244,30.4 C109.36329,30.4 117.123212,33.4799692 123.403244,39.64 C129.683275,45.8000308 132.943243,54.1999468 133.183244,64.84 L75.8232439,64.84 C76.0632451,72.5200384 78.4832209,78.6999766 83.0832439,83.38 C87.6832669,88.0600234 93.2632111,90.4 99.8232439,90.4 C110.623298,90.4 118.703217,85.3200508 124.063244,75.16 Z M124.063244,57.76 C122.943238,51.6799696 120.143266,46.9200172 115.663244,43.48 C111.183221,40.0399828 106.023273,38.32 100.183244,38.32 C88.1831839,38.32 80.3432623,44.7999352 76.6632439,57.76 L124.063244,57.76 Z M149.014866,32.08 L157.294866,32.08 L157.294866,43.48 C163.854899,34.7599564 171.814819,30.4 181.174866,30.4 C185.97489,30.4 190.294847,31.699987 194.134866,34.3 C197.974885,36.900013 200.694858,40.299979 202.294866,44.5 C203.894874,48.700021 204.694866,54.8799592 204.694866,63.04 L204.694866,95.8 L196.534866,95.8 L196.534866,65.44 C196.534866,57.9999628 196.194869,52.9600132 195.514866,50.32 C194.834862,47.6799868 193.794873,45.4400092 192.394866,43.6 C190.994859,41.7599908 189.214877,40.3600048 187.054866,39.4 C184.894855,38.4399952 182.274881,37.96 179.194866,37.96 C176.11485,37.96 173.094881,38.7199924 170.134866,40.24 C167.174851,41.7600076 164.654876,43.8799864 162.574866,46.6 C160.494855,49.3200136 159.094869,52.1199856 158.374866,55 C157.654862,57.8800144 157.294866,63.6799564 157.294866,72.4 L157.294866,95.8 L149.014866,95.8 L149.014866,32.08 Z M218.966488,14.32 C218.966488,12.48 219.626481,10.8800068 220.946488,9.52 C222.266494,8.1599932 223.866478,7.48 225.746488,7.48 C227.626497,7.48 229.226481,8.1399934 230.546488,9.46 C231.866494,10.7800066 232.526488,12.3799906 232.526488,14.26 C232.526488,16.1400094 231.866494,17.7399934 230.546488,19.06 C229.226481,20.3800066 227.626497,21.04 225.746488,21.04 C223.866478,21.04 222.266494,20.3600068 220.946488,19 C219.626481,17.6399932 218.966488,16.0800088 218.966488,14.32 Z M221.606488,32.08 L229.886488,32.08 L229.886488,95.8 L221.606488,95.8 L221.606488,32.08 Z M309.67811,45.28 L303.19811,49.36 C297.598082,41.9199628 289.918158,38.2 280.15811,38.2 C272.478071,38.2 266.038136,40.6599754 260.83811,45.58 C255.638084,50.5000246 253.03811,56.5999636 253.03811,63.88 C253.03811,71.1600364 255.598084,77.399974 260.71811,82.6 C265.838135,87.800026 272.31807,90.4 280.15811,90.4 C289.518156,90.4 297.19808,86.6800372 303.19811,79.24 L309.67811,83.56 C306.478094,88.2000232 302.178137,91.7599876 296.77811,94.24 C291.378083,96.7200124 285.558141,97.96 279.31811,97.96 C269.47806,97.96 261.258143,94.7200324 254.65811,88.24 C248.058077,81.7599676 244.75811,73.8400468 244.75811,64.48 C244.75811,55.1199532 248.098076,47.1000334 254.77811,40.42 C261.458143,33.7399666 270.038057,30.4 280.51811,30.4 C286.67814,30.4 292.378083,31.7199868 297.61811,34.36 C302.858136,37.0000132 306.878096,40.6399768 309.67811,45.28 Z" id="irenic" fill="#161616" fill-rule="nonzero"></path>
                <text id="CIA" font-family="JosefinSans-Regular, Josefin Sans" font-size="30" font-weight="normal" letter-spacing="0.147905483" fill="#46C09B">
                    <tspan x="0" y="132">CIA</tspan>
                </text>
            </g>
        </g>
    </g>
</svg>