<?xml version="1.0" encoding="UTF-8"?>
<svg width="504px" height="98px" viewBox="0 0 504 98" version="1.1" xmlns="http://www.w3.org/2000/svg" xmlns:xlink="http://www.w3.org/1999/xlink">
    <!-- Generator: Sketch 55.2 (78181) - https://sketchapp.com -->
    <title>login-irenic</title>
    <desc>Created with Sketch.</desc>
    <g id="Page-1" stroke="none" stroke-width="1" fill="none" fill-rule="evenodd">
        <g id="Artboard-Copy-5" transform="translate(-28.000000, -136.000000)" fill-rule="nonzero">
            <g id="login-irenic" transform="translate(28.000000, 136.000000)">
                <g id="Group-2">
                    <g id="Group" transform="translate(185.000000, 55.000000)" fill="#161616">
                        <path d="M3.21089149,6.572 C3.21089149,5.77466268 3.49688863,5.08133628 4.06889149,4.492 C4.64089435,3.90266372 5.33422075,3.608 6.14889149,3.608 C6.96356223,3.608 7.65688863,3.89399714 8.22889149,4.466 C8.80089435,5.03800286 9.08689149,5.73132926 9.08689149,6.546 C9.08689149,7.36067074 8.80089435,8.05399714 8.22889149,8.626 C7.65688863,9.19800286 6.96356223,9.484 6.14889149,9.484 C5.33422075,9.484 4.64089435,9.18933628 4.06889149,8.6 C3.49688863,8.01066372 3.21089149,7.33467048 3.21089149,6.572 Z M4.35489149,14.268 L7.94289149,14.268 L7.94289149,41.88 L4.35489149,41.88 L4.35489149,14.268 Z M14.179261,14.268 L17.819261,14.268 L17.819261,18.272 C18.7899325,16.6426585 19.7345897,15.4466705 20.653261,14.684 C21.5719323,13.9213295 22.5945887,13.54 23.721261,13.54 C24.8479333,13.54 25.9832553,13.8519969 27.127261,14.476 L25.255261,17.492 C24.7352584,17.1799984 24.1979304,17.024 23.643261,17.024 C22.568589,17.024 21.5545991,17.5786611 20.601261,18.688 C19.6479229,19.7973389 18.9459299,21.2273246 18.495261,22.978 C18.0445921,24.7286754 17.819261,27.9093103 17.819261,32.52 L17.819261,41.88 L14.179261,41.88 L14.179261,14.268 Z M54.6836305,32.936 L57.6996305,34.496 C54.7182823,40.0426944 50.3156596,42.816 44.4916305,42.816 C40.3316097,42.816 36.899644,41.3860143 34.1956305,38.526 C31.491617,35.6659857 30.1396305,32.2253534 30.1396305,28.204 C30.1396305,24.1826466 31.5002836,20.7333477 34.2216305,17.856 C36.9429774,14.9786523 40.3056105,13.54 44.3096305,13.54 C48.3136505,13.54 51.6762836,14.8746533 54.3976305,17.544 C57.1189774,20.2133467 58.53163,23.8533103 58.6356305,28.464 L33.7796305,28.464 C33.883631,31.7920166 34.9322872,34.4699899 36.9256305,36.498 C38.9189738,38.5260101 41.3369496,39.54 44.1796305,39.54 C48.8596539,39.54 52.3609522,37.3386887 54.6836305,32.936 Z M54.6836305,25.396 C54.1982947,22.7613202 52.9849735,20.6986741 51.0436305,19.208 C49.1022875,17.7173259 46.8663098,16.972 44.3356305,16.972 C39.1356045,16.972 35.7383051,19.7799719 34.1436305,25.396 L54.6836305,25.396 Z M65.496,14.268 L69.084,14.268 L69.084,19.208 C71.9266809,15.4293144 75.3759797,13.54 79.432,13.54 C81.5120104,13.54 83.3839917,14.1033277 85.048,15.23 C86.7120083,16.3566723 87.8906632,17.8299909 88.584,19.65 C89.2773368,21.4700091 89.624,24.1479823 89.624,27.684 L89.624,41.88 L86.088,41.88 L86.088,28.724 C86.088,25.4999839 85.9406681,23.3160057 85.646,22.172 C85.3513319,21.0279943 84.9006697,20.0573373 84.294,19.26 C83.6873303,18.4626627 82.9160047,17.8560021 81.98,17.44 C81.0439953,17.0239979 79.9086733,16.816 78.574,16.816 C77.2393267,16.816 75.9306731,17.14533 74.648,17.804 C73.3653269,18.46267 72.2733378,19.3813274 71.372,20.56 C70.4706622,21.7386726 69.8640016,22.9519938 69.552,24.2 C69.2399984,25.4480062 69.084,27.9613144 69.084,31.74 L69.084,41.88 L65.496,41.88 L65.496,14.268 Z M95.8083695,6.572 C95.8083695,5.77466268 96.0943666,5.08133628 96.6663695,4.492 C97.2383724,3.90266372 97.9316988,3.608 98.7463695,3.608 C99.5610402,3.608 100.254367,3.89399714 100.82637,4.466 C101.398372,5.03800286 101.68437,5.73132926 101.68437,6.546 C101.68437,7.36067074 101.398372,8.05399714 100.82637,8.626 C100.254367,9.19800286 99.5610402,9.484 98.7463695,9.484 C97.9316988,9.484 97.2383724,9.18933628 96.6663695,8.6 C96.0943666,8.01066372 95.8083695,7.33467048 95.8083695,6.572 Z M96.9523695,14.268 L100.54037,14.268 L100.54037,41.88 L96.9523695,41.88 L96.9523695,14.268 Z M135.116739,19.988 L132.308739,21.756 C129.88206,18.5319839 126.554093,16.92 122.324739,16.92 C118.996722,16.92 116.206084,17.9859893 113.952739,20.118 C111.699394,22.2500107 110.572739,24.8933176 110.572739,28.048 C110.572739,31.2026824 111.682061,33.9066554 113.900739,36.16 C116.119417,38.4133446 118.927389,39.54 122.324739,39.54 C126.380759,39.54 129.708726,37.9280161 132.308739,34.704 L135.116739,36.576 C133.730065,38.5866767 131.866751,40.129328 129.526739,41.204 C127.186727,42.278672 124.664753,42.816 121.960739,42.816 C117.696718,42.816 114.134753,41.412014 111.274739,38.604 C108.414725,35.795986 106.984739,32.3640203 106.984739,28.308 C106.984739,24.2519797 108.432058,20.7766811 111.326739,17.882 C114.22142,14.9873189 117.939383,13.54 122.480739,13.54 C125.150086,13.54 127.620061,14.1119943 129.890739,15.256 C132.161417,16.4000057 133.9034,17.9773233 135.116739,19.988 Z" id="irenic"></path>
                    </g>
                    <path d="M17.1478538,33.72 C14.0278382,33.72 11.1778667,32.9850074 8.59785385,31.515 C6.01784095,30.0449927 3.9928612,28.0200129 2.52285385,25.44 C1.0528465,22.8599871 0.317853846,20.0100156 0.317853846,16.89 C0.317853846,13.7699844 1.0528465,10.9200129 2.52285385,8.34 C3.9928612,5.7599871 6.01784095,3.73500735 8.59785385,2.265 C11.1778667,0.79499265 14.0278382,0.06 17.1478538,0.06 C19.577866,0.06 21.7903439,0.5099955 23.7853538,1.41 C25.7803638,2.3100045 27.5428462,3.61499145 29.0728538,5.325 L25.4728538,8.79 C24.3628483,7.4699934 23.1328606,6.48750323 21.7828538,5.8425 C20.4328471,5.19749678 18.8878625,4.875 17.1478538,4.875 C14.987843,4.875 13.0153628,5.36999505 11.2303538,6.36 C9.44534492,7.35000495 8.0278591,8.75249093 6.97785385,10.5675 C5.9278486,12.3825091 5.40285385,14.489988 5.40285385,16.89 C5.40285385,19.290012 5.9278486,21.3974909 6.97785385,23.2125 C8.0278591,25.0275091 9.44534492,26.4299951 11.2303538,27.42 C13.0153628,28.410005 14.987843,28.905 17.1478538,28.905 C20.7478718,28.905 23.8078412,27.405015 26.3278538,24.405 L29.9728538,27.915 C28.412846,29.7450092 26.5378648,31.1699949 24.3478538,32.19 C22.1578429,33.2100051 19.7578669,33.72 17.1478538,33.72 Z M48.2175685,33.72 C45.9075569,33.72 43.8375776,33.1875053 42.0075685,32.1225 C40.1775593,31.0574947 38.7525736,29.5950093 37.7325685,27.735 C36.7125634,25.8749907 36.2025685,23.8050114 36.2025685,21.525 C36.2025685,19.2449886 36.7125634,17.1750093 37.7325685,15.315 C38.7525736,13.4549907 40.1775593,11.9925053 42.0075685,10.9275 C43.8375776,9.86249468 45.9075569,9.33 48.2175685,9.33 C50.52758,9.33 52.5975593,9.8699946 54.4275685,10.95 C56.2575776,12.0300054 57.6825634,13.4999907 58.7025685,15.36 C59.7225736,17.2200093 60.2325685,19.2749888 60.2325685,21.525 C60.2325685,23.8050114 59.7225736,25.8749907 58.7025685,27.735 C57.6825634,29.5950093 56.2575776,31.0574947 54.4275685,32.1225 C52.5975593,33.1875053 50.52758,33.72 48.2175685,33.72 Z M48.2175685,29.175 C49.4775748,29.175 50.6475631,28.8675031 51.7275685,28.2525 C52.8075739,27.6374969 53.6700652,26.7525058 54.3150685,25.5975 C54.9600717,24.4424942 55.2825685,23.0850078 55.2825685,21.525 C55.2825685,19.9649922 54.9600717,18.6150057 54.3150685,17.475 C53.6700652,16.3349943 52.8075739,15.4575031 51.7275685,14.8425 C50.6475631,14.2274969 49.4775748,13.92 48.2175685,13.92 C46.9575622,13.92 45.7875739,14.2274969 44.7075685,14.8425 C43.6275631,15.4575031 42.7650717,16.3349943 42.1200685,17.475 C41.4750652,18.6150057 41.1525685,19.9649922 41.1525685,21.525 C41.1525685,23.0850078 41.4750652,24.4424942 42.1200685,25.5975 C42.7650717,26.7525058 43.6275631,27.6374969 44.7075685,28.2525 C45.7875739,28.8675031 46.9575622,29.175 48.2175685,29.175 Z M67.9022831,10.05 L72.6272831,10.05 L72.6272831,13.065 L72.8522831,13.065 C73.5422865,11.9549945 74.5172768,11.0550035 75.7772831,10.365 C77.0372894,9.67499655 78.3872759,9.33 79.8272831,9.33 C81.4772913,9.33 82.9172769,9.71249618 84.1472831,10.4775 C85.3772892,11.2425038 86.2622804,12.2549937 86.8022831,13.515 C87.582287,12.2549937 88.6247766,11.2425038 89.9297831,10.4775 C91.2347896,9.71249618 92.7722742,9.33 94.5422831,9.33 C97.1822963,9.33 99.1847763,10.132492 100.549783,11.7375 C101.91479,13.342508 102.597283,15.5249862 102.597283,18.285 L102.597283,33 L97.6472831,33 L97.6472831,19.14 C97.6472831,15.6599826 96.1622979,13.92 93.1922831,13.92 C91.6022751,13.92 90.2972882,14.5649936 89.2772831,15.855 C88.257278,17.1450065 87.7472831,18.7349906 87.7472831,20.625 L87.7472831,33 L82.7972831,33 L82.7972831,19.14 C82.7972831,15.6599826 81.2672984,13.92 78.2072831,13.92 C76.6472753,13.92 75.3647881,14.5649936 74.3597831,15.855 C73.3547781,17.1450065 72.8522831,18.7349906 72.8522831,20.625 L72.8522831,33 L67.9022831,33 L67.9022831,10.05 Z M111.796998,10.05 L116.521998,10.05 L116.521998,13.065 L116.746998,13.065 C117.437001,11.9549945 118.411991,11.0550035 119.671998,10.365 C120.932004,9.67499655 122.28199,9.33 123.721998,9.33 C125.372006,9.33 126.811992,9.71249618 128.041998,10.4775 C129.272004,11.2425038 130.156995,12.2549937 130.696998,13.515 C131.477002,12.2549937 132.519491,11.2425038 133.824498,10.4775 C135.129504,9.71249618 136.666989,9.33 138.436998,9.33 C141.077011,9.33 143.079491,10.132492 144.444498,11.7375 C145.809505,13.342508 146.491998,15.5249862 146.491998,18.285 L146.491998,33 L141.541998,33 L141.541998,19.14 C141.541998,15.6599826 140.057013,13.92 137.086998,13.92 C135.49699,13.92 134.192003,14.5649936 133.171998,15.855 C132.151993,17.1450065 131.641998,18.7349906 131.641998,20.625 L131.641998,33 L126.691998,33 L126.691998,19.14 C126.691998,15.6599826 125.162013,13.92 122.101998,13.92 C120.54199,13.92 119.259503,14.5649936 118.254498,15.855 C117.249493,17.1450065 116.746998,18.7349906 116.746998,20.625 L116.746998,33 L111.796998,33 L111.796998,10.05 Z M164.061712,33.72 C161.271698,33.72 159.14922,32.8875083 157.694212,31.2225 C156.239205,29.5574917 155.511712,27.2400149 155.511712,24.27 L155.511712,10.05 L160.461712,10.05 L160.461712,23.595 C160.461712,25.4550093 160.904208,26.8499954 161.789212,27.78 C162.674217,28.7100047 163.836705,29.175 165.276712,29.175 C166.446718,29.175 167.481708,28.8675031 168.381712,28.2525 C169.281717,27.6374969 169.97171,26.8200051 170.451712,25.8 C170.931715,24.7799949 171.171712,23.6850059 171.171712,22.515 L171.171712,10.05 L176.121712,10.05 L176.121712,33 L171.441712,33 L171.441712,30.03 L171.171712,30.03 C170.541709,31.1100054 169.566719,31.9949966 168.246712,32.685 C166.926706,33.3750035 165.53172,33.72 164.061712,33.72 Z M185.456427,10.05 L190.181427,10.05 L190.181427,13.065 L190.406427,13.065 C191.06643,11.9849946 192.04892,11.0925035 193.353927,10.3875 C194.658933,9.68249648 196.04642,9.33 197.516427,9.33 C200.306441,9.33 202.42892,10.1474918 203.883927,11.7825 C205.338934,13.4175082 206.066427,15.6449859 206.066427,18.465 L206.066427,33 L201.116427,33 L201.116427,19.14 C201.116427,17.339991 200.673931,16.0200042 199.788927,15.18 C198.903922,14.3399958 197.681435,13.92 196.121427,13.92 C195.011421,13.92 194.021431,14.2274969 193.151427,14.8425 C192.281423,15.4575031 191.606429,16.2749949 191.126427,17.295 C190.646425,18.3150051 190.406427,19.4099942 190.406427,20.58 L190.406427,33 L185.456427,33 L185.456427,10.05 Z M218.056142,6.72 C217.126137,6.72 216.338645,6.39750323 215.693642,5.7525 C215.048638,5.10749678 214.726142,4.32000465 214.726142,3.39 C214.726142,2.45999535 215.048638,1.67250323 215.693642,1.0275 C216.338645,0.382496775 217.126137,0.06 218.056142,0.06 C218.986146,0.06 219.773638,0.382496775 220.418642,1.0275 C221.063645,1.67250323 221.386142,2.45999535 221.386142,3.39 C221.386142,4.32000465 221.063645,5.10749678 220.418642,5.7525 C219.773638,6.39750323 218.986146,6.72 218.056142,6.72 Z M215.581142,10.05 L220.531142,10.05 L220.531142,33 L215.581142,33 L215.581142,10.05 Z M239.450856,33.36 C238.430851,33.36 237.470861,33.1950017 236.570856,32.865 C235.670852,32.5349984 234.935859,32.1000027 234.365856,31.56 C233.07585,30.2699936 232.430856,28.5150111 232.430856,26.295 L232.430856,14.415 L228.425856,14.415 L228.425856,10.05 L232.430856,10.05 L232.430856,3.57 L237.380856,3.57 L237.380856,10.05 L242.960856,10.05 L242.960856,14.415 L237.380856,14.415 L237.380856,25.215 C237.380856,26.4450062 237.620854,27.3149975 238.100856,27.825 C238.550858,28.425003 239.330851,28.725 240.440856,28.725 C240.950859,28.725 241.400854,28.6575007 241.790856,28.5225 C242.180858,28.3874993 242.600854,28.1700015 243.050856,27.87 L243.050856,32.685 C242.060851,33.1350023 240.860863,33.36 239.450856,33.36 Z M254.320571,6.72 C253.390566,6.72 252.603074,6.39750323 251.958071,5.7525 C251.313068,5.10749678 250.990571,4.32000465 250.990571,3.39 C250.990571,2.45999535 251.313068,1.67250323 251.958071,1.0275 C252.603074,0.382496775 253.390566,0.06 254.320571,0.06 C255.250575,0.06 256.038068,0.382496775 256.683071,1.0275 C257.328074,1.67250323 257.650571,2.45999535 257.650571,3.39 C257.650571,4.32000465 257.328074,5.10749678 256.683071,5.7525 C256.038068,6.39750323 255.250575,6.72 254.320571,6.72 Z M251.845571,10.05 L256.795571,10.05 L256.795571,33 L251.845571,33 L251.845571,10.05 Z M276.795285,33.72 C274.545274,33.72 272.527794,33.1950053 270.742785,32.145 C268.957776,31.0949948 267.56279,29.6475092 266.557785,27.8025 C265.55278,25.9574908 265.050285,23.8800116 265.050285,21.57 C265.050285,19.3799891 265.537781,17.3475094 266.512785,15.4725 C267.48779,13.5974906 268.845277,12.1050056 270.585285,10.995 C272.325294,9.88499445 274.305274,9.33 276.525285,9.33 C278.835297,9.33 280.837777,9.8399949 282.532785,10.86 C284.227794,11.8800051 285.517781,13.2749912 286.402785,15.045 C287.28779,16.8150089 287.730285,18.8099889 287.730285,21.03 C287.730285,21.4500021 287.685286,21.9749969 287.595285,22.605 L270.000285,22.605 C270.180286,24.7350107 270.937779,26.3774942 272.272785,27.5325 C273.607792,28.6875058 275.160277,29.265 276.930285,29.265 C278.340292,29.265 279.56278,28.9425032 280.597785,28.2975 C281.632791,27.6524968 282.465282,26.7750056 283.095285,25.665 L287.280285,27.645 C286.20028,29.5350095 284.790294,31.0199946 283.050285,32.1 C281.310277,33.1800054 279.225298,33.72 276.795285,33.72 Z M282.690285,18.825 C282.630285,18.014996 282.375288,17.212504 281.925285,16.4175 C281.475283,15.622496 280.79279,14.9550027 279.877785,14.415 C278.962781,13.8749973 277.845292,13.605 276.525285,13.605 C274.935277,13.605 273.592791,14.0774953 272.497785,15.0225 C271.40278,15.9675047 270.645287,17.2349921 270.225285,18.825 L282.690285,18.825 Z M304.4,33.72 C301.759987,33.72 299.600008,33.1425058 297.92,31.9875 C296.239992,30.8324942 295.055003,29.355009 294.365,27.555 L298.775,25.62 C299.315003,26.820006 300.072495,27.7349969 301.0475,28.365 C302.022505,28.9950032 303.139994,29.31 304.4,29.31 C305.630006,29.31 306.664996,29.0925022 307.505,28.6575 C308.345004,28.2224978 308.765,27.5700044 308.765,26.7 C308.765,25.8599958 308.405004,25.2000024 307.685,24.72 C306.964996,24.2399976 305.855008,23.8200018 304.355,23.46 L301.61,22.785 C299.779991,22.3349978 298.265006,21.5400057 297.065,20.4 C295.865,19.2599943 295.265,17.8200087 295.265,16.08 C295.265,14.7299933 295.662496,13.5450051 296.4575,12.525 C297.252504,11.5049949 298.324993,10.7175028 299.675,10.1625 C301.025007,9.60749723 302.494992,9.33 304.085,9.33 C306.215011,9.33 308.089992,9.75749573 309.71,10.6125 C311.330008,11.4675043 312.499996,12.7049919 313.22,14.325 L308.9,16.215 C308.029996,14.4449912 306.440012,13.56 304.13,13.56 C303.019994,13.56 302.090004,13.7849978 301.34,14.235 C300.589996,14.6850023 300.215,15.2699964 300.215,15.99 C300.215,16.6800035 300.499997,17.2424978 301.07,17.6775 C301.640003,18.1125022 302.479994,18.4799985 303.59,18.78 L306.965,19.635 C309.215011,20.2050029 310.917494,21.0674942 312.0725,22.2225 C313.227506,23.3775058 313.805,24.7949916 313.805,26.475 C313.805,27.9150072 313.392504,29.1824945 312.5675,30.2775 C311.742496,31.3725055 310.610007,32.219997 309.17,32.82 C307.729993,33.420003 306.140009,33.72 304.4,33.72 Z M338.594429,6.72 C337.664425,6.72 336.876932,6.39750323 336.231929,5.7525 C335.586926,5.10749678 335.264429,4.32000465 335.264429,3.39 C335.264429,2.45999535 335.586926,1.67250323 336.231929,1.0275 C336.876932,0.382496775 337.664425,0.06 338.594429,0.06 C339.524434,0.06 340.311926,0.382496775 340.956929,1.0275 C341.601932,1.67250323 341.924429,2.45999535 341.924429,3.39 C341.924429,4.32000465 341.601932,5.10749678 340.956929,5.7525 C340.311926,6.39750323 339.524434,6.72 338.594429,6.72 Z M336.119429,10.05 L341.069429,10.05 L341.069429,33 L336.119429,33 L336.119429,10.05 Z M350.809144,10.05 L355.534144,10.05 L355.534144,13.065 L355.759144,13.065 C356.419147,11.9849946 357.401637,11.0925035 358.706644,10.3875 C360.01165,9.68249648 361.399136,9.33 362.869144,9.33 C365.659158,9.33 367.781637,10.1474918 369.236644,11.7825 C370.691651,13.4175082 371.419144,15.6449859 371.419144,18.465 L371.419144,33 L366.469144,33 L366.469144,19.14 C366.469144,17.339991 366.026648,16.0200042 365.141644,15.18 C364.256639,14.3399958 363.034152,13.92 361.474144,13.92 C360.364138,13.92 359.374148,14.2274969 358.504144,14.8425 C357.634139,15.4575031 356.959146,16.2749949 356.479144,17.295 C355.999141,18.3150051 355.759144,19.4099942 355.759144,20.58 L355.759144,33 L350.809144,33 L350.809144,10.05 Z M403.228573,0.78 L408.988573,0.78 L421.093573,33 L415.513573,33 L412.633573,24.765 L399.628573,24.765 L396.703573,33 L391.123573,33 L403.228573,0.78 Z M410.923573,20.085 L407.503573,10.5 L406.243573,6.765 L405.973573,6.765 L404.713573,10.5 L401.293573,20.085 L410.923573,20.085 Z M436.053288,33.36 C435.033283,33.36 434.073292,33.1950017 433.173288,32.865 C432.273283,32.5349984 431.538291,32.1000027 430.968288,31.56 C429.678281,30.2699936 429.033288,28.5150111 429.033288,26.295 L429.033288,14.415 L425.028288,14.415 L425.028288,10.05 L429.033288,10.05 L429.033288,3.57 L433.983288,3.57 L433.983288,10.05 L439.563288,10.05 L439.563288,14.415 L433.983288,14.415 L433.983288,25.215 C433.983288,26.4450062 434.223285,27.3149975 434.703288,27.825 C435.15329,28.425003 435.933282,28.725 437.043288,28.725 C437.55329,28.725 438.003286,28.6575007 438.393288,28.5225 C438.78329,28.3874993 439.203285,28.1700015 439.653288,27.87 L439.653288,32.685 C438.663283,33.1350023 437.463295,33.36 436.053288,33.36 Z M447.863002,10.05 L452.588002,10.05 L452.588002,13.425 L452.813002,13.425 C453.323005,12.2549942 454.207996,11.2875038 455.468002,10.5225 C456.728009,9.75749618 458.062995,9.375 459.473002,9.375 C460.583008,9.375 461.512999,9.5249985 462.263002,9.825 L462.263002,14.955 C460.942996,14.4749976 459.758008,14.235 458.708002,14.235 C457.567997,14.235 456.555507,14.534997 455.670502,15.135 C454.785498,15.735003 454.088005,16.537495 453.578002,17.5425 C453.068,18.547505 452.813002,19.649994 452.813002,20.85 L452.813002,33 L447.863002,33 L447.863002,10.05 Z M472.452717,6.72 C471.522712,6.72 470.73522,6.39750323 470.090217,5.7525 C469.445214,5.10749678 469.122717,4.32000465 469.122717,3.39 C469.122717,2.45999535 469.445214,1.67250323 470.090217,1.0275 C470.73522,0.382496775 471.522712,0.06 472.452717,0.06 C473.382722,0.06 474.170214,0.382496775 474.815217,1.0275 C475.46022,1.67250323 475.782717,2.45999535 475.782717,3.39 C475.782717,4.32000465 475.46022,5.10749678 474.815217,5.7525 C474.170214,6.39750323 473.382722,6.72 472.452717,6.72 Z M469.977717,10.05 L474.927717,10.05 L474.927717,33 L469.977717,33 L469.977717,10.05 Z M491.642432,33.72 C489.992423,33.72 488.522438,33.3975032 487.232432,32.7525 C485.942425,32.1074968 484.937435,31.1925059 484.217432,30.0075 C483.497428,28.8224941 483.137432,27.4800075 483.137432,25.98 C483.137432,23.6099882 484.029923,21.7350069 485.814932,20.355 C487.59994,18.9749931 489.857418,18.285 492.587432,18.285 C493.937438,18.285 495.152426,18.4124987 496.232432,18.6675 C497.312437,18.9225013 498.167428,19.1999985 498.797432,19.5 L498.797432,18.33 C498.797432,16.919993 498.272437,15.7725044 497.222432,14.8875 C496.172426,14.0024956 494.82244,13.56 493.172432,13.56 C492.002426,13.56 490.899937,13.8149975 489.864932,14.325 C488.829926,14.8350026 487.997435,15.5399955 487.367432,16.44 L483.902432,13.785 C484.922437,12.374993 486.242423,11.2800039 487.862432,10.5 C489.48244,9.7199961 491.282422,9.33 493.262432,9.33 C496.592448,9.33 499.157423,10.1474918 500.957432,11.7825 C502.757441,13.4175082 503.657432,15.7199852 503.657432,18.69 L503.657432,33 L498.797432,33 L498.797432,30.255 L498.572432,30.255 C497.912428,31.245005 496.982438,32.0699967 495.782432,32.73 C494.582426,33.3900033 493.202439,33.72 491.642432,33.72 Z M492.497432,29.625 C493.697438,29.625 494.777427,29.3400029 495.737432,28.77 C496.697436,28.1999972 497.447429,27.4350048 497.987432,26.475 C498.527434,25.5149952 498.797432,24.4800056 498.797432,23.37 C498.107428,22.9799981 497.304936,22.6650012 496.389932,22.425 C495.474927,22.1849988 494.522436,22.065 493.532432,22.065 C491.672422,22.065 490.307436,22.4324963 489.437432,23.1675 C488.567427,23.9025037 488.132432,24.8549942 488.132432,26.025 C488.132432,27.0750053 488.537427,27.9374966 489.347432,28.6125 C490.157436,29.2875034 491.207425,29.625 492.497432,29.625 Z" id="CommunitiesinAtria" fill="#42ECAB"></path>
                </g>
            </g>
        </g>
    </g>
</svg>