<?xml version="1.0" encoding="UTF-8"?>
<svg width="1308px" height="914px" viewBox="0 0 1308 914" version="1.1" xmlns="http://www.w3.org/2000/svg" xmlns:xlink="http://www.w3.org/1999/xlink">
    <!-- Generator: Sketch 55.2 (78181) - https://sketchapp.com -->
    <title>philosophy</title>
    <desc>Created with Sketch.</desc>
    <g id="Page-1" stroke="none" stroke-width="1" fill="none" fill-rule="evenodd">
        <g id="Artboard-Copy-3" transform="translate(-678.000000, -794.000000)">
            <g id="philosophy" transform="translate(678.000000, 794.000000)">
                <g id="Group-3">
                    <rect id="Rectangle" fill="#81FFC3" x="797" y="0" width="511" height="510"></rect>
                    <g id="Group" transform="translate(870.000000, 73.000000)" fill="#FFFFFF">
                        <path d="M182.5,301 C113.781567,301 53.4413484,337.699069 19.8858145,392.597864 C11.4791504,406.351811 4.75097428,421.251445 0,437 L59.7712393,437 C80.8803585,390.053955 127.949143,357.299871 182.5,357.299871 C237.050857,357.299871 284.119641,390.053955 305.242985,437 L365,437 C341.273578,358.391341 268.444271,301 182.5,301" id="Fill-76"></path>
                        <path d="M143.5,223.700511 C95.8615569,223.700511 57.1135369,184.80705 57.1135369,137.000713 C57.1135369,89.1929498 95.8615569,50.2994893 143.5,50.2994893 C191.138443,50.2994893 229.886463,89.1929498 229.886463,137.000713 C229.886463,184.80705 191.138443,223.700511 143.5,223.700511 Z M143.5,0 C68.2372343,0 7,61.4587704 7,137.000713 C7,212.542656 68.2372343,274 143.5,274 C218.77699,274 280,212.542656 280,137.000713 C280,61.4587704 218.77699,0 143.5,0 L143.5,0 Z" id="Fill-82"></path>
                    </g>
                    <rect id="Rectangle-Copy-2" fill="#9AFFD0" x="511" y="404" width="212" height="212"></rect>
                    <rect id="Rectangle-Copy" fill="#9AFFD0" x="395" y="0" width="328" height="327"></rect>
                    <rect id="Rectangle-Copy-3" fill="#9AFFD0" x="797" y="587" width="328" height="327"></rect>
                    <rect id="Rectangle-Copy-4" fill="#C7FFE4" x="0" y="404" width="437" height="436"></rect>
                    <g id="Group-Copy" transform="translate(122.000000, 513.000000)" fill="#FFFFFF">
                        <path d="M136.5,225 C85.1023772,225 39.9712003,252.524302 14.8734996,293.698398 C8.58577553,304.013858 3.55346843,315.188584 0,327 L44.7056118,327 C60.4940764,291.790466 95.6989478,267.224903 136.5,267.224903 C177.301052,267.224903 212.505924,291.790466 228.305027,327 L273,327 C255.253936,268.043506 200.781606,225 136.5,225" id="Fill-76"></path>
                        <path d="M157,167.36717 C121.402043,167.36717 92.4474781,138.268049 92.4474781,102.500534 C92.4474781,66.7319515 121.402043,37.6328296 157,37.6328296 C192.597957,37.6328296 221.552522,66.7319515 221.552522,102.500534 C221.552522,138.268049 192.597957,167.36717 157,167.36717 Z M157,0 C100.759692,0 55,45.9819267 55,102.500534 C55,159.01914 100.759692,205 157,205 C213.250938,205 259,159.01914 259,102.500534 C259,45.9819267 213.250938,0 157,0 L157,0 Z" id="Fill-82"></path>
                    </g>
                </g>
                <g id="Group-2" transform="translate(546.000000, 454.000000)" fill="#65A7DD">
                    <path d="M68,111 C42.3953235,111 19.9123928,124.762151 7.40950896,145.349199 C4.2771629,150.506929 1.77022603,156.094292 0,162 L22.2709275,162 C30.1362432,144.395233 47.6742011,132.112452 68,132.112452 C88.3257989,132.112452 105.863757,144.395233 113.734373,162 L136,162 C127.15947,132.521753 100.023071,111 68,111" id="Fill-76"></path>
                    <path d="M68,83.4545455 C50.102705,83.4545455 35.5454545,68.8955819 35.5454545,51.000267 C35.5454545,33.1044181 50.102705,18.5454545 68,18.5454545 C85.897295,18.5454545 100.454545,33.1044181 100.454545,51.000267 C100.454545,68.8955819 85.897295,83.4545455 68,83.4545455 Z M68,0 C39.8798458,0 17,22.8788123 17,51.0002655 C17,79.1217186 39.8798458,102 68,102 C96.1254689,102 119,79.1217186 119,51.0002655 C119,22.8788123 96.1254689,0 68,0 L68,0 Z" id="Fill-82"></path>
                </g>
            </g>
        </g>
    </g>
</svg>