<?xml version="1.0" encoding="UTF-8"?>
<svg width="1085px" height="1289px" viewBox="0 0 1085 1289" version="1.1" xmlns="http://www.w3.org/2000/svg" xmlns:xlink="http://www.w3.org/1999/xlink">
    <!-- Generator: Sketch 55.2 (78181) - https://sketchapp.com -->
    <title>resources</title>
    <desc>Created with Sketch.</desc>
    <g id="Page-1" stroke="none" stroke-width="1" fill="none" fill-rule="evenodd">
        <g id="Artboard-Copy" transform="translate(-1579.000000, -289.000000)">
            <g id="resources" transform="translate(1579.000000, 289.000000)">
                <g id="Group-3">
                    <g id="Rectangle-2" transform="translate(574.000000, 0.000000)" fill="#81FFC3">
                        <rect id="Rectangle" x="0" y="0" width="511" height="510"></rect>
                    </g>
                    <g id="Group-2" transform="translate(0.000000, 655.000000)">
                        <rect id="Rectangle-Copy-3" fill="#9AFFD0" x="0" y="0" width="511" height="510"></rect>
                        <path d="M184.5,374 C115.028488,374 54.027007,410.699069 20.1037412,465.597864 C11.6049493,479.351811 4.80303975,494.251445 0,510 L60.4262666,510 C81.7667186,463.053955 129.351325,430.299871 184.5,430.299871 C239.648675,430.299871 287.233281,463.053955 308.588114,510 L369,510 C345.013562,431.391341 271.386126,374 184.5,374" id="Fill-76" fill="#7BC3FF"></path>
                        <path d="M171,297.700511 C122.838058,297.700511 83.6642351,258.80705 83.6642351,211.000713 C83.6642351,163.19295 122.838058,124.299489 171,124.299489 C219.161942,124.299489 258.335765,163.19295 258.335765,211.000713 C258.335765,258.80705 219.161942,297.700511 171,297.700511 Z M171,74 C94.9101709,74 33,135.45877 33,211.000713 C33,286.542656 94.9101709,348 171,348 C247.10421,348 309,286.542656 309,211.000713 C309,135.45877 247.10421,74 171,74 L171,74 Z" id="Fill-82" fill="#7BC3FF"></path>
                    </g>
                    <rect id="Rectangle-Copy-2" fill="#9AFFD0" x="574" y="582" width="212" height="212"></rect>
                    <rect id="Rectangle-Copy" fill="#9AFFD0" x="183" y="255" width="328" height="327"></rect>
                    <g id="Group" transform="translate(256.000000, 360.000000)" fill="#FFFFFF">
                        <path d="M88.5,156 C55.1762666,156 25.9153936,173.809843 9.64325799,200.451905 C5.56660171,207.126614 2.30389712,214.357319 0,222 L28.9849571,222 C39.2214341,199.21736 62.0465705,183.321996 88.5,183.321996 C114.953429,183.321996 137.778566,199.21736 148.021941,222 L177,222 C165.49431,183.85168 130.177085,156 88.5,156" id="Fill-76"></path>
                        <path d="M80,108.584554 C56.9660275,108.584554 38.2307211,89.705612 38.2307211,66.5003462 C38.2307211,43.294388 56.9660275,24.4154456 80,24.4154456 C103.033972,24.4154456 121.769279,43.294388 121.769279,66.5003462 C121.769279,89.705612 103.033972,108.584554 80,108.584554 Z M80,0 C43.6092122,0 14,29.8321769 14,66.5003462 C14,103.168515 43.6092122,133 80,133 C116.397666,133 146,103.168515 146,66.5003462 C146,29.8321769 116.397666,0 80,0 L80,0 Z" id="Fill-82"></path>
                    </g>
                    <rect id="Rectangle-Copy-4" fill="#C7FFE4" x="574" y="853" width="437" height="436"></rect>
                </g>
                <g id="Group" transform="translate(640.000000, 84.000000)" fill="#FFFFFF">
                    <path d="M240.5,290 C171.781567,290 111.441348,326.699069 77.8858145,381.597864 C69.4791504,395.351811 62.7509743,410.251445 58,426 L117.771239,426 C138.880359,379.053955 185.949143,346.299871 240.5,346.299871 C295.050857,346.299871 342.119641,379.053955 363.242985,426 L423,426 C399.273578,347.391341 326.444271,290 240.5,290" id="Fill-76"></path>
                    <path d="M136.5,223.700511 C88.8615569,223.700511 50.1135369,184.80705 50.1135369,137.000713 C50.1135369,89.1929498 88.8615569,50.2994893 136.5,50.2994893 C184.138443,50.2994893 222.886463,89.1929498 222.886463,137.000713 C222.886463,184.80705 184.138443,223.700511 136.5,223.700511 Z M136.5,0 C61.2372343,0 0,61.4587704 0,137.000713 C0,212.542656 61.2372343,274 136.5,274 C211.77699,274 273,212.542656 273,137.000713 C273,61.4587704 211.77699,0 136.5,0 L136.5,0 Z" id="Fill-82"></path>
                </g>
            </g>
        </g>
    </g>
</svg>